HIERARCHY
ROOT root
{
	OFFSET	0	13.1	24.9
	CHANNELS 6  Xposition Yposition Zposition Xrotation Yrotation Zrotation
	JOINT spine_1
	{
		OFFSET	0	9.99999	0
		CHANNELS 3  Xrotation Yrotation Zrotation
		JOINT spine_2
		{
			OFFSET	0	112	-10
			CHANNELS 3  Xrotation Yrotation Zrotation
			JOINT spine_3
			{
				OFFSET	0	206.5	19.3
				CHANNELS 3  Xrotation Yrotation Zrotation
				JOINT spine_4
				{
					OFFSET	0	110.4	14.6
					CHANNELS 3  Xrotation Yrotation Zrotation
					JOINT neck_1
					{
						OFFSET	0	71.8	-50.3
						CHANNELS 3  Xrotation Yrotation Zrotation
						JOINT neck_2
						{
							OFFSET	0	86.2	-25.8
							CHANNELS 3  Xrotation Yrotation Zrotation
							JOINT head_ee
							{
								OFFSET	0	179.8	-8.7
								CHANNELS 3  Xrotation Yrotation Zrotation
								End Site
								{
									OFFSET	1	0	0
								}
							}
						}
					}
					JOINT left_clavicle
					{
						OFFSET	-43.2	22.4	-70.8
						CHANNELS 3  Xrotation Yrotation Zrotation
						JOINT left_shoulder
						{
							OFFSET	-93.9	-5.79999	48.7
							CHANNELS 3  Xrotation Yrotation Zrotation
							JOINT left_elbow
							{
								OFFSET	-291.4	-30.8	15.2
								CHANNELS 3  Xrotation Yrotation Zrotation
								JOINT left_lowarm_twist
								{
									OFFSET	-110.7	-3.89999	13.6
									CHANNELS 3  Xrotation Yrotation Zrotation
									JOINT left_hand
									{
										OFFSET	-110.7	-3.89999	13.6
										CHANNELS 3  Xrotation Yrotation Zrotation
										JOINT left_ee
										{
											OFFSET	-80.8	-5.10001	12.1
											CHANNELS 3  Xrotation Yrotation Zrotation
											End Site
											{
												OFFSET	1	0	0
											}
										}
									}
								}
							}
						}
					}
					JOINT right_clavicle
					{
						OFFSET	43.2	22.4	-70.8
						CHANNELS 3  Xrotation Yrotation Zrotation
						JOINT right_shoulder
						{
							OFFSET	93.9	-5.79999	48.7
							CHANNELS 3  Xrotation Yrotation Zrotation
							JOINT right_elbow
							{
								OFFSET	291.4	-30.8	15.2
								CHANNELS 3  Xrotation Yrotation Zrotation
								JOINT right_lowarm_twist
								{
									OFFSET	110.7	-3.89999	13.6
									CHANNELS 3  Xrotation Yrotation Zrotation
									JOINT right_hand
									{
										OFFSET	110.7	-3.89999	13.6
										CHANNELS 3  Xrotation Yrotation Zrotation
										JOINT right_ee
										{
											OFFSET	80.8	-5.10001	12.1
											CHANNELS 3  Xrotation Yrotation Zrotation
											End Site
											{
												OFFSET	1	0	0
											}
										}
									}
								}
							}
						}
					}
				}
			}
		}
	}
	JOINT left_hip
	{
		OFFSET	-82.8	-127.5	0.300001
		CHANNELS 3  Xrotation Yrotation Zrotation
		JOINT left_knee
		{
			OFFSET	-28.2	-396.7	2.2
			CHANNELS 3  Xrotation Yrotation Zrotation
			JOINT left_ankle
			{
				OFFSET	-11.7	-411.3	35.4
				CHANNELS 3  Xrotation Yrotation Zrotation
				JOINT left_toes
				{
					OFFSET	0	-60	-88.6
					CHANNELS 3  Xrotation Yrotation Zrotation
					JOINT left_foot_ee
					{
						OFFSET	-22.5	-16.5	-42.2
						CHANNELS 3  Xrotation Yrotation Zrotation
						End Site
						{
							OFFSET	1	0	0
						}
					}
				}
			}
		}
	}
	JOINT right_hip
	{
		OFFSET	82.8	-127.5	0.300001
		CHANNELS 3  Xrotation Yrotation Zrotation
		JOINT right_knee
		{
			OFFSET	28.2	-396.7	2.2
			CHANNELS 3  Xrotation Yrotation Zrotation
			JOINT right_ankle
			{
				OFFSET	11.7	-411.3	35.4
				CHANNELS 3  Xrotation Yrotation Zrotation
				JOINT right_toes
				{
					OFFSET	0	-60	-88.6
					CHANNELS 3  Xrotation Yrotation Zrotation
					JOINT right_foot_ee
					{
						OFFSET	22.5	-16.5	-42.2
						CHANNELS 3  Xrotation Yrotation Zrotation
						End Site
						{
							OFFSET	1	0	0
						}
					}
				}
			}
		}
	}
}
MOTION
Frames: 16
Frame Time: 0.02
3574.42 741.953 -1474.73 -15.6643184426 71.647932491 16.6631787891 -0.342558 -0.0451974 1.30053 -0.341626 -0.127855 1.29502 -0.344115 -0.40469 1.2368 -0.346192 -0.204299 1.28518 -8.70851 -24.2409 -9.026 -8.84058 -39.4239 -14.5661 -0.0 0.0 -0.0 1.78535 24.0228 5.19157 16.0319 -18.9427 73.2993 1.47256 -36.1071 0.480009 -42.7326 -3.24635 4.24994 -1.39372 6.42313 -6.42749 -0.0 0.0 -0.0 8.96278 21.1125 -17.0067 -24.2666 33.205 -61.4387 0.508687 14.1436 -0.0631066 -24.2789 1.45459 -2.71897 2.9874 15.5509 -13.5211 0.0 0.0 0.0 0.151772 1.63539 0.610452 -5.62055 0.19027 0.841259 37.3104 26.6507 -4.95475 -21.3459 0.0 0.0 -0.0 0.0 -0.0 13.7381 -26.5688 1.31327 -16.4731 -0.320958 -2.4989 27.9525 31.7089 4.64777 -18.6308 0.0 0.0 0.0 0.0 0.0 
3571.72199172 739.841 -1475.34151559 -14.663457843 71.7738544108 15.7848639816 -0.511221 0.175203 1.34629 -0.510217 0.0891885 1.3547 -0.50746 -0.209449 1.34139 -0.509971 0.00500627 1.35763 -9.09814 -24.2361 -9.21229 -9.29154 -39.4141 -14.8909 -0.0 0.0 -0.0 1.76745 23.6812 5.14791 16.4072 -19.848 73.5317 1.53338 -37.2174 0.516324 -43.0161 -3.27748 4.26876 -1.33418 5.93853 -6.25704 -0.0 0.0 -0.0 8.8466 21.4995 -16.7175 -24.4276 33.1769 -61.3974 0.513532 14.2728 -0.0642958 -24.2431 1.45162 -2.71547 3.05108 16.1411 -13.674 0.0 0.0 0.0 -0.0331399 1.83416 0.736167 -6.00622 0.200286 0.899598 37.2549 26.59 -4.94699 -21.4844 0.0 0.0 -0.0 0.0 -0.0 13.5352 -27.7783 0.991724 -16.6592 -0.320454 -2.52744 28.7949 31.0674 4.71861 -19.3376 0.0 0.0 0.0 0.0 0.0 
3565.1436077 737.006 -1475.4606476 -12.7410927386 71.3760491318 13.3267047915 -0.51552 0.192921 1.48384 -0.5143 0.0981204 1.49311 -0.510955 -0.23112 1.47837 -0.514005 0.00523497 1.49632 -9.41728 -24.2963 -9.33037 -9.66748 -39.5528 -15.1441 -0.0 0.0 -0.0 0.957805 24.4446 4.10418 17.1717 -20.5508 75.2113 1.59813 -38.3647 0.556008 -43.1812 -3.29566 4.27966 -1.32342 4.76173 -6.72063 -0.0 0.0 -0.0 8.70086 21.974 -16.3549 -24.087 33.5958 -62.3635 0.468454 13.0649 -0.0536427 -24.5314 1.47556 -2.74361 3.02909 15.7604 -13.7068 0.0 0.0 0.0 -0.22011 1.86232 0.759197 -7.90876 0.243929 1.18829 37.8519 26.0456 -4.99002 -21.9433 0.0 0.0 -0.0 0.0 -0.0 13.0397 -26.5533 1.28535 -16.4901 -0.320916 -2.5015 30.4833 30.6225 4.90585 -19.269 0.0 0.0 0.0 0.0 0.0 
3565.15535763 737.006 -1475.59700736 -12.2133510984 70.5531970569 12.768450385 -0.51552 0.192921 1.48384 -0.5143 0.0981204 1.49311 -0.510955 -0.23112 1.47837 -0.514005 0.00523497 1.49632 -9.41728 -24.2963 -9.33037 -9.66748 -39.5528 -15.1441 -0.0 0.0 -0.0 0.957805 24.4446 4.10418 17.1717 -20.5508 75.2113 1.59813 -38.3647 0.556008 -43.1812 -3.29566 4.27966 -1.32342 4.76173 -6.72063 -0.0 0.0 -0.0 8.70086 21.974 -16.3549 -24.087 33.5958 -62.3635 0.468454 13.0649 -0.0536427 -24.5314 1.47556 -2.74361 3.02909 15.7604 -13.7068 0.0 0.0 0.0 -0.22011 1.86232 0.759197 -7.90876 0.243929 1.18829 37.8519 26.0456 -4.99002 -21.9433 0.0 0.0 -0.0 0.0 -0.0 13.0397 -26.5533 1.28535 -16.4901 -0.320916 -2.5015 30.4833 30.6225 4.90585 -19.269 0.0 0.0 0.0 0.0 0.0 
3565.16676832 737.006 -1475.7113274 -11.8043524576 69.8612522007 12.3337806474 -0.51552 0.192921 1.48384 -0.5143 0.0981204 1.49311 -0.510955 -0.23112 1.47837 -0.514005 0.00523497 1.49632 -9.41728 -24.2963 -9.33037 -9.66748 -39.5528 -15.1441 -0.0 0.0 -0.0 0.957805 24.4446 4.10418 17.1717 -20.5508 75.2113 1.59813 -38.3647 0.556008 -43.1812 -3.29566 4.27966 -1.32342 4.76173 -6.72063 -0.0 0.0 -0.0 8.70086 21.974 -16.3549 -24.087 33.5958 -62.3635 0.468454 13.0649 -0.0536427 -24.5314 1.47556 -2.74361 3.02909 15.7604 -13.7068 0.0 0.0 0.0 -0.22011 1.86232 0.759197 -7.90876 0.243929 1.18829 37.8519 26.0456 -4.99002 -21.9433 0.0 0.0 -0.0 0.0 -0.0 13.0397 -26.5533 1.28535 -16.4901 -0.320916 -2.5015 30.4833 30.6225 4.90585 -19.269 0.0 0.0 0.0 0.0 0.0 
3565.18572436 737.006 -1475.87605994 -11.2623375821 68.8608175947 11.7546162552 -0.51552 0.192921 1.48384 -0.5143 0.0981204 1.49311 -0.510955 -0.23112 1.47837 -0.514005 0.00523497 1.49632 -9.41728 -24.2963 -9.33037 -9.66748 -39.5528 -15.1441 -0.0 0.0 -0.0 0.957805 24.4446 4.10418 17.1717 -20.5508 75.2113 1.59813 -38.3647 0.556008 -43.1812 -3.29566 4.27966 -1.32342 4.76173 -6.72063 -0.0 0.0 -0.0 8.70086 21.974 -16.3549 -24.087 33.5958 -62.3635 0.468454 13.0649 -0.0536427 -24.5314 1.47556 -2.74361 3.02909 15.7604 -13.7068 0.0 0.0 0.0 -0.22011 1.86232 0.759197 -7.90876 0.243929 1.18829 37.8519 26.0456 -4.99002 -21.9433 0.0 0.0 -0.0 0.0 -0.0 13.0397 -26.5533 1.28535 -16.4901 -0.320916 -2.5015 30.4833 30.6225 4.90585 -19.269 0.0 0.0 0.0 0.0 0.0 
3565.2107093 737.006 -1476.06201533 -10.7092451247 67.7266561633 11.1593419453 -0.51552 0.192921 1.48384 -0.5143 0.0981204 1.49311 -0.510955 -0.23112 1.47837 -0.514005 0.00523497 1.49632 -9.41728 -24.2963 -9.33037 -9.66748 -39.5528 -15.1441 -0.0 0.0 -0.0 0.957805 24.4446 4.10418 17.1717 -20.5508 75.2113 1.59813 -38.3647 0.556008 -43.1812 -3.29566 4.27966 -1.32342 4.76173 -6.72063 -0.0 0.0 -0.0 8.70086 21.974 -16.3549 -24.087 33.5958 -62.3635 0.468454 13.0649 -0.0536427 -24.5314 1.47556 -2.74361 3.02909 15.7604 -13.7068 0.0 0.0 0.0 -0.22011 1.86232 0.759197 -7.90876 0.243929 1.18829 37.8519 26.0456 -4.99002 -21.9433 0.0 0.0 -0.0 0.0 -0.0 13.0397 -26.5533 1.28535 -16.4901 -0.320916 -2.5015 30.4833 30.6225 4.90585 -19.269 0.0 0.0 0.0 0.0 0.0 
3565.25656509 737.006 -1476.34764046 -9.9617086096 65.9742037189 10.3464414267 -0.51552 0.192921 1.48384 -0.5143 0.0981204 1.49311 -0.510955 -0.23112 1.47837 -0.514005 0.00523497 1.49632 -9.41728 -24.2963 -9.33037 -9.66748 -39.5528 -15.1441 -0.0 0.0 -0.0 0.957805 24.4446 4.10418 17.1717 -20.5508 75.2113 1.59813 -38.3647 0.556008 -43.1812 -3.29566 4.27966 -1.32342 4.76173 -6.72063 -0.0 0.0 -0.0 8.70086 21.974 -16.3549 -24.087 33.5958 -62.3635 0.468454 13.0649 -0.0536427 -24.5314 1.47556 -2.74361 3.02909 15.7604 -13.7068 0.0 0.0 0.0 -0.22011 1.86232 0.759197 -7.90876 0.243929 1.18829 37.8519 26.0456 -4.99002 -21.9433 0.0 0.0 -0.0 0.0 -0.0 13.0397 -26.5533 1.28535 -16.4901 -0.320916 -2.5015 30.4833 30.6225 4.90585 -19.269 0.0 0.0 0.0 0.0 0.0 
3565.32645443 737.006 -1476.703 -9.17129184912 63.7749937404 9.47358374807 -0.51552 0.192921 1.48384 -0.5143 0.0981204 1.49311 -0.510955 -0.23112 1.47837 -0.514005 0.00523497 1.49632 -9.41728 -24.2963 -9.33037 -9.66748 -39.5528 -15.1441 -0.0 0.0 -0.0 0.957805 24.4446 4.10418 17.1717 -20.5508 75.2113 1.59813 -38.3647 0.556008 -43.1812 -3.29566 4.27966 -1.32342 4.76173 -6.72063 -0.0 0.0 -0.0 8.70086 21.974 -16.3549 -24.087 33.5958 -62.3635 0.468454 13.0649 -0.0536427 -24.5314 1.47556 -2.74361 3.02909 15.7604 -13.7068 0.0 0.0 0.0 -0.22011 1.86232 0.759197 -7.90876 0.243929 1.18829 37.8519 26.0456 -4.99002 -21.9433 0.0 0.0 -0.0 0.0 -0.0 13.0397 -26.5533 1.28535 -16.4901 -0.320916 -2.5015 30.4833 30.6225 4.90585 -19.269 0.0 0.0 0.0 0.0 0.0 
3549.23289938 728.909 -1493.74444878 -5.96983075913 65.3959492488 5.55916346774 -0.753955 0.677682 1.8529 -0.752218 0.558426 1.89224 -0.732008 0.123262 1.96904 -0.737157 0.432631 1.92489 -10.2284 -24.411 -9.32191 -10.6539 -40.0368 -15.5042 -0.0 0.0 -0.0 -2.26069 25.1742 -0.0784899 17.3165 -22.8552 77.6596 1.67413 -39.6662 0.603856 -42.0578 -3.17263 4.20451 -1.53248 1.29151 -9.70032 -0.0 0.0 -0.0 9.72011 23.8769 -18.4518 -19.9069 36.0372 -62.7622 0.374881 10.5205 -0.0345143 -24.3282 1.45868 -2.72379 2.96368 14.0645 -14.0658 0.0 0.0 0.0 2.8007 2.30621 -0.166925 -22.2475 0.262173 3.38258 39.5395 24.9487 -5.12181 -22.4627 0.0 0.0 -0.0 0.0 -0.0 10.4915 -28.3059 2.56045 -18.4767 -0.310657 -2.80612 34.9196 29.841 5.37838 -18.748 0.0 0.0 0.0 0.0 0.0 
3550.76045068 728.909 -1495.6145643 -5.12940464171 61.0313188652 4.61840031371 -0.753955 0.677682 1.8529 -0.752218 0.558426 1.89224 -0.732008 0.123262 1.96904 -0.737157 0.432631 1.92489 -10.2284 -24.411 -9.32191 -10.6539 -40.0368 -15.5042 -0.0 0.0 -0.0 -2.26069 25.1742 -0.0784899 17.3165 -22.8552 77.6596 1.67413 -39.6662 0.603856 -42.0578 -3.17263 4.20451 -1.53248 1.29151 -9.70032 -0.0 0.0 -0.0 9.72011 23.8769 -18.4518 -19.9069 36.0372 -62.7622 0.374881 10.5205 -0.0345143 -24.3282 1.45868 -2.72379 2.96368 14.0645 -14.0658 0.0 0.0 0.0 2.8007 2.30621 -0.166925 -22.2475 0.262173 3.38258 39.5395 24.9487 -5.12181 -22.4627 0.0 0.0 -0.0 0.0 -0.0 10.4915 -28.3059 2.56045 -18.4767 -0.310657 -2.80612 34.9196 29.841 5.37838 -18.748 0.0 0.0 0.0 0.0 0.0 
3545.4117696 726.35 -1502.41592005 -2.36255823966 58.0046086411 1.4073403799 -1.00462 0.743079 1.96418 -1.00269 0.616613 2.00746 -0.978911 0.145355 2.09495 -0.984722 0.47432 2.04574 -9.63879 -24.4712 -8.87669 -9.98316 -40.2639 -14.8702 -0.0 0.0 -0.0 -2.66869 24.0526 -0.828819 15.0977 -23.1449 76.3693 1.66131 -39.45 0.59569 -41.8977 -3.15521 4.1936 -1.5195 0.922421 -9.78121 -0.0 0.0 -0.0 10.1047 25.0816 -19.194 -18.7644 36.7625 -61.6857 0.517748 14.3852 -0.0653392 -24.3392 1.45959 -2.72487 2.94493 13.71 -14.1035 0.0 0.0 0.0 3.06464 3.14433 0.0944999 -27.5831 0.129023 4.19028 39.2201 25.1783 -5.09809 -21.7501 0.0 0.0 -0.0 0.0 -0.0 8.45648 -28.1496 3.63142 -17.3586 -0.31773 -2.63471 37.0045 29.5688 5.58515 -18.2093 0.0 0.0 0.0 0.0 0.0 
3528.74825048 708.067 -1523.88782538 3.25787699267 65.9211114465 -5.8207120185 -2.06525 0.860678 2.68388 -2.06151 0.688217 2.73316 -2.02354 -0.000837765 2.81841 -2.03435 0.444114 2.78323 -7.12472 -23.8571 -6.28973 -7.09308 -40.1099 -11.2611 -0.0 0.0 -0.0 -3.56904 23.4623 -2.17923 9.53484 -23.7253 72.1736 1.64602 -39.1903 0.585999 -40.0169 -2.95297 4.06188 -2.04248 2.11552 -12.7749 -0.0 0.0 -0.0 14.7954 26.462 -29.8165 -22.6756 37.5837 -50.4023 0.459476 12.8229 -0.0516317 -23.1061 1.35862 -2.60333 2.44793 16.0688 -9.59662 0.0 0.0 0.0 7.46018 7.58622 -0.0590236 -43.4967 -0.704078 6.48072 36.3913 25.3558 -4.81845 -22.5766 0.0 0.0 -0.0 0.0 -0.0 3.3908 -32.1117 5.3582 -18.7836 -0.30813 -2.85315 37.712 33.8689 5.98347 -13.6594 0.0 0.0 0.0 0.0 0.0 
3531.42676386 708.067 -1526.24681421 2.91525751338 62.8774546474 -5.44092925352 -2.06525 0.860678 2.68388 -2.06151 0.688217 2.73316 -2.02354 -0.000837765 2.81841 -2.03435 0.444114 2.78323 -7.12472 -23.8571 -6.28973 -7.09308 -40.1099 -11.2611 -0.0 0.0 -0.0 -3.56904 23.4623 -2.17923 9.53484 -23.7253 72.1736 1.64602 -39.1903 0.585999 -40.0169 -2.95297 4.06188 -2.04248 2.11552 -12.7749 -0.0 0.0 -0.0 14.7954 26.462 -29.8165 -22.6756 37.5837 -50.4023 0.459476 12.8229 -0.0516317 -23.1061 1.35862 -2.60333 2.44793 16.0688 -9.59662 0.0 0.0 0.0 7.46018 7.58622 -0.0590236 -43.4967 -0.704078 6.48072 36.3913 25.3558 -4.81845 -22.5766 0.0 0.0 -0.0 0.0 -0.0 3.3908 -32.1117 5.3582 -18.7836 -0.30813 -2.85315 37.712 33.8689 5.98347 -13.6594 0.0 0.0 0.0 0.0 0.0 
3533.4012767 708.067 -1527.83239956 2.71710640531 60.7175949482 -5.21612536352 -2.06525 0.860678 2.68388 -2.06151 0.688217 2.73316 -2.02354 -0.000837765 2.81841 -2.03435 0.444114 2.78323 -7.12472 -23.8571 -6.28973 -7.09308 -40.1099 -11.2611 -0.0 0.0 -0.0 -3.56904 23.4623 -2.17923 9.53484 -23.7253 72.1736 1.64602 -39.1903 0.585999 -40.0169 -2.95297 4.06188 -2.04248 2.11552 -12.7749 -0.0 0.0 -0.0 14.7954 26.462 -29.8165 -22.6756 37.5837 -50.4023 0.459476 12.8229 -0.0516317 -23.1061 1.35862 -2.60333 2.44793 16.0688 -9.59662 0.0 0.0 0.0 7.46018 7.58622 -0.0590236 -43.4967 -0.704078 6.48072 36.3913 25.3558 -4.81845 -22.5766 0.0 0.0 -0.0 0.0 -0.0 3.3908 -32.1117 5.3582 -18.7836 -0.30813 -2.85315 37.712 33.8689 5.98347 -13.6594 0.0 0.0 0.0 0.0 0.0 
3508.33423369 699.171 -1522.07778021 2.48204025292 70.6837402996 -6.5793307883 -1.52845 1.21883 2.94187 -1.52422 1.02925 3.01338 -1.46431 0.292826 3.17067 -1.47746 0.789661 3.08478 -6.86802 -23.9842 -5.97002 -6.79799 -40.501 -10.8797 -0.0 0.0 -0.0 -4.78854 24.5307 -3.59669 3.89705 -22.93 72.705 1.48439 -36.3256 0.487 -40.913 -3.04878 4.12546 -1.82714 2.7818 -11.0002 -0.0 0.0 -0.0 14.1948 27.4497 -28.2705 -18.3546 42.2605 -50.4287 0.773949 20.9763 -0.14328 -21.6745 1.24473 -2.45957 2.03948 10.5035 -9.33781 0.0 0.0 0.0 9.3753 12.4999 0.250905 -47.5939 -1.01914 7.02667 32.6481 24.8674 -4.40337 -21.8164 0.0 0.0 -0.0 0.0 -0.0 3.4781 -34.3649 8.0234 -18.0169 -0.313971 -2.73565 37.9334 33.1859 5.95059 -3.55198 0.0 0.0 0.0 0.0 0.0 
